<svg xmlns="http://www.w3.org/2000/svg" width="1920" height="1440">
<rect fill="#fff" width="1920" height="1440"/>
<g transform="translate(960,0)">
<circle cx="395" cy="606" r="295"/>
<circle cx="-395" cy="606" r="295"/>
<circle fill="#FFF" cx="416" cy="562" r="220"/>
<circle fill="#FFF" cx="-375" cy="562" r="220"/>
<path fill="none" stroke="#000" stroke-width="18" d="M 246,878.6 A 246,168.5 0 0 1 -246,878.6 246,168.5 0 1 1 246,878.6z"/>
<path d="M 156,824.86 A 156,114.4 0 0 1 -156,824.86 156,114.4 0 1 1 156,824.86z"/>
<path fill="#F8C129" stroke="#000" stroke-width="18" d="M -355,1200 C -390,1190 -430,1170 -455,1120 -475,1080 -475,1015 -465,970 -459.46934,945.11202 -457.60208,893.82662 -425,825 -380,730 -285,655 -230,630 -191.10913,612.32233 -135.81577,595.09064 -90,590 0,580 0,580 90,590 135.8158,595.09064 191.1091,612.32233 230,630 285,655 380,730 425,825 457.6021,893.82662 459.4693,945.11202 465,970 475,1015 475,1080 455,1120 430,1170 390,1190 355,1200 320,1210 259.7734,1195.4297 250,1190 205,1165 170,1140 155,1070 149.658,1045.0708 150,1040 150,930 150,850 150,825 150,820 140,745 55,720 0,720 -55,720 -140,745 -150,820 -150,825 -150,850 -150,925 -150,1040 -149.65804,1045.0708 -155,1070 -170,1140 -205,1165 -250,1190 -259.7734,1195.4297 -320,1210 -355,1200z"/>
</g>
</svg>