<svg height="496pt" viewBox="-48 0 496 496" width="496pt" xmlns="http://www.w3.org/2000/svg"><g fill="#f0bc5e"><path d="m168 360h16v64h-16zm0 0"/><path d="m216 360h16v64h-16zm0 0"/><path d="m176 26.640625c-8.40625 1.839844-16.414062 4.695313-24 8.296875v94.664062l24-4.800781zm0 0"/><path d="m224 26.640625v98.160156l24 4.800781v-94.65625c-7.585938-3.609374-15.59375-6.464843-24-8.304687zm0 0"/><path d="m280 224h-12.222656c-23.53125 0-46.738282-5.480469-67.777344-16-21.046875 10.519531-44.246094 16-67.777344 16h-12.222656v-56h160zm0 0"/><path d="m0 416h88v48h-88zm0 0"/><path d="m312 416h88v48h-88zm0 0"/></g><path d="m384 416v-32h16v-8c0-39.695312-32.304688-72-72-72h-60.6875l-2.34375-2.34375c-4.945312-4.945312-7.839844-11.304688-8.625-18.136719.953125-.792969 1.832031-1.664062 2.746094-2.496093l29.230468 7.304687 31.679688-10.558594v-141.769531c0-53.769531-36.664062-101.273438-88-115.503906v-20.496094h-64v20.496094c-51.335938 14.230468-88 61.734375-88 115.503906v141.769531l31.679688 10.558594 29.230468-7.304687c.914063.832031 1.800782 1.703124 2.746094 2.496093-.785156 6.839844-3.6875 13.199219-8.625 18.136719l-2.34375 2.34375h-60.6875c-39.695312 0-72 32.304688-72 72v8h16v32h16v-32h56v48h-88v16h88v32h-56v-16h-16v32h368v-32h-16v16h-56v-32h88v-16h-88v-48h56v32zm-112-96h56c28.167969 0 51.535156 20.894531 55.433594 48h-111.433594zm-128 32v-16h112v16zm112 128h-48v-44.457031l48 18zm-64 0h-48v-26.457031l48-18zm8-64c-28.167969 0-51.535156-20.894531-55.433594-48h110.859375c-3.890625 27.105469-27.257812 48-55.425781 48zm-70.144531-184h2.367187c23.320313 0 46.664063-5.214844 67.777344-15.113281 21.113281 9.898437 44.457031 15.113281 67.777344 15.113281h2.367187c-7.304687 32.015625-35.953125 56-70.144531 56s-62.839844-23.984375-70.144531-56zm142.144531-72h-24v-22.238281l24 4.796875zm-40-25.441406v25.441406h-24v-30.238281zm-40 25.441406h-24v-25.441406l24-4.796875zm-40 0h-24v-17.441406l24-4.796875zm-24 16h144v40h-4.222656c-22.175782 0-44.378906-5.238281-64.203125-15.160156l-3.574219-1.785156-3.574219 1.792968c-19.824219 9.914063-42.027343 15.152344-64.203125 15.152344h-4.222656zm176-40v130.230469l-16.320312 5.441406-16.511719-4.128906c10.535156-14.503907 16.832031-32.277344 16.832031-51.542969v-86.558594l-56-11.203125v-14.238281h16v-16h-16v-16h16v-16h-16v-18.871094c42.246094 13.710938 72 53.765625 72 98.871094zm-88-120v99.039062l-16-3.199218-16 3.199218v-99.039062zm-120 250.230469v-130.230469c0-45.105469 29.753906-85.160156 72-98.871094v18.871094h-16v16h16v16h-16v16h16v14.238281l-56 11.203125v86.558594c0 19.265625 6.296875 37.039062 16.832031 51.542969l-16.511719 4.128906zm104 37.769531c15.175781 0 29.464844-3.863281 41.945312-10.65625 2.183594 7.335938 6.152344 14.0625 11.710938 19.625l2.34375 2.34375v4.6875h-112v-4.6875l2.34375-2.34375c5.558594-5.5625 9.535156-12.289062 11.710938-19.625 12.480468 6.792969 26.769531 10.65625 41.945312 10.65625zm-128 16h56v48h-111.433594c3.898438-27.105469 27.265625-48 55.433594-48zm32 64h28.199219c6.710937 18.902344 21.046875 34.214844 39.359375 42.121094l-43.558594 16.335937v37.542969h-24zm192 96h-24v-37.542969l-43.558594-16.335937c18.3125-7.90625 32.648438-23.21875 39.359375-42.121094h28.199219zm0 0"/><path d="m248 192c0 4.417969-3.582031 8-8 8s-8-3.582031-8-8 3.582031-8 8-8 8 3.582031 8 8zm0 0"/><path d="m168 192c0 4.417969-3.582031 8-8 8s-8-3.582031-8-8 3.582031-8 8-8 8 3.582031 8 8zm0 0"/></svg>