<svg height="496pt" viewBox="-56 0 496 496" width="496pt" xmlns="http://www.w3.org/2000/svg"><path d="m341.65625 258.34375c-19.128906-19.128906-29.65625-44.550781-29.65625-71.601562v-78.964844c0-24.539063-13.328125-46.65625-34.886719-58.144532l-7.921875-9.503906c-21.253906-25.503906-52.480468-40.128906-85.679687-40.128906-61.488281 0-111.511719 50.023438-111.511719 111.511719v75.222656c0 27.050781-10.527344 52.480469-29.65625 71.601563l-7.238281 7.238281 8.78125 5.273437c27.410156 16.457032 58.792969 25.152344 90.761719 25.152344h9.351562v-16.113281c-17.390625-13.085938-29.230469-33.0625-31.519531-55.886719h-.480469c-17.671875 0-32-14.328125-32-32s14.328125-32 32-32v-56l80-24 80 24v56c17.671875 0 32 14.328125 32 32s-14.328125 32-32 32h-.480469c-2.289062 22.832031-14.128906 42.808594-31.519531 55.886719v16.113281h9.351562c31.96875 0 63.351563-8.695312 90.769532-25.144531l8.78125-5.269531zm0 0" fill="#f0bc5e"/><path d="m184 104h16v16h-16zm0 0"/><path d="m192 264c-17.648438 0-32-14.351562-32-32h16c0 8.824219 7.175781 16 16 16s16-7.175781 16-16h16c0 17.648438-14.351562 32-32 32zm0 0"/><path d="m240 176c0 4.417969-3.582031 8-8 8s-8-3.582031-8-8 3.582031-8 8-8 8 3.582031 8 8zm0 0"/><path d="m160 176c0 4.417969-3.582031 8-8 8s-8-3.582031-8-8 3.582031-8 8-8 8 3.582031 8 8zm0 0"/><path d="m346.441406 331.390625-5.257812 15.113281c16.039062 5.585938 26.816406 20.761719 26.816406 37.769532v95.726562h-56v-120h-16v40h-96v-43.71875l41.769531-27.847656 20.839844 3.671875 2.78125-15.753907-17.390625-3.0625v-29.464843c15.777344-13.046875 26.808594-31.519531 30.519531-52.488281 18.945313-3.136719 33.480469-19.511719 33.480469-39.335938 0-19.3125-13.769531-35.472656-32-39.191406v-54.761719l-88-26.398437-88 26.398437v54.761719c-18.230469 3.71875-32 19.871094-32 39.191406 0 19.824219 14.535156 36.199219 33.480469 39.34375 3.710937 20.96875 14.742187 39.441406 30.519531 52.488281v29.464844l-17.390625 3.070313 1.984375 11.234374-7.179688 4.957032.730469 1.058594c41.34375 59.71875 95.664063 109.847656 158.304688 146.398437h-52.769531c-48.871094-33.335937-90.71875-74.878906-124.375-123.503906l-.71875-1.046875-6.585938 4.535156h-16v120h-56v-95.726562c0-17.007813 10.777344-32.183594 26.824219-37.777344l-5.257813-15.113282c-22.46875 7.824219-37.566406 29.082032-37.566406 52.890626v111.726562h384v-111.726562c0-23.808594-15.097656-45.066407-37.558594-52.882813zm-242.441406-116.863281c-9.289062-3.3125-16-12.113282-16-22.527344s6.710938-19.214844 16-22.527344zm192-22.527344c0 10.414062-6.710938 19.214844-16 22.527344v-45.046875c9.289062 3.304687 16 12.105469 16 22.519531zm-176-82.046875 72-21.601563 72 21.601563v26.046875h-24v-16h-16v16h-64v-16h-16v16h-24zm0 106.046875v-64h144v64c0 39.695312-32.304688 72-72 72s-72-32.304688-72-72zm64 176.015625c-19.167969-19.007813-36.703125-39.671875-52.457031-61.695313l10.6875-1.886718 41.769531 27.847656zm-32-76.296875v-21.429688c12.015625 6.160157 25.59375 9.710938 40 9.710938s27.984375-3.550781 40-9.710938v21.429688l-40 26.664062zm-64 164.28125v-106.335938c29.328125 40.617188 64.214844 76.335938 104.199219 106.335938zm208-5.40625c-30.695312-16.425781-59.558594-36.019531-85.929688-58.59375h85.929688zm0 0"/><path d="m128 368h-64c-17.648438 0-32-14.351562-32-32s14.351562-32 32-32h64zm0 0" fill="#f0bc5e"/><path d="m320 368h-64v-64h64c17.648438 0 32 14.351562 32 32s-14.351562 32-32 32zm0 0" fill="#f0bc5e"/><path d="m272 320h16v32h-16zm0 0"/><path d="m96 320h16v32h-16zm0 0"/></svg>